<svg width="24" height="24" fill="none" xmlns="http://www.w3.org/2000/svg"><path fill-rule="evenodd" clip-rule="evenodd" d="m5.699 7 4.398-4.215a2.75 2.75 0 0 1 3.806 0L18.3 7h2.546a1 1 0 0 1 .99 1.141l-1.469 10.283A3 3 0 0 1 17.398 21H6.602a3 3 0 0 1-2.97-2.576L2.163 8.141A1 1 0 0 1 3.153 7h2.546Zm5.436-3.132a1.25 1.25 0 0 1 1.73 0L16.133 7H7.867l3.268-3.132ZM3.73 8.5l1.387 9.712A1.5 1.5 0 0 0 6.602 19.5h10.796a1.5 1.5 0 0 0 1.485-1.288L20.27 8.5H3.73Z" fill="#000"/><path fill-rule="evenodd" clip-rule="evenodd" d="M8 11.25a.75.75 0 0 1 .75.75v4a.75.75 0 0 1-1.5 0v-4a.75.75 0 0 1 .75-.75Zm4 0a.75.75 0 0 1 .75.75v4a.75.75 0 0 1-1.5 0v-4a.75.75 0 0 1 .75-.75Zm4 0a.75.75 0 0 1 .75.75v4a.75.75 0 0 1-1.5 0v-4a.75.75 0 0 1 .75-.75Z" fill="#000"/></svg>