<svg width="539" height="180" fill="none" xmlns="http://www.w3.org/2000/svg"><path d="M0 0h539v180H0V0Z" fill="#BCE7F0"/><mask id="a" style="mask-type:alpha" maskUnits="userSpaceOnUse" x="0" y="0" width="539" height="180"><path d="M0 0h539v180H0V0Z" fill="#BCE7F0"/></mask><g mask="url(#a)"><path d="M26.196 32.317a47.392 47.392 0 0 0-2.354-1.848 388.782 388.782 0 0 1 6.644 12.027c.64 1.211 1.28 2.43 1.921 3.657l5.096-1.365a162.383 162.383 0 0 0-11.307-12.471Zm-4.931-3.477a5.857 5.857 0 0 0-.947-.384s3.654 9.18 7.714 18.87l2.963-.794c-3.053-6-6.32-11.895-9.73-17.691Z" fill="#EA90A6"/><path d="m20.683 25.173.053.039a.51.51 0 0 0-.053-.04Zm11.724 20.981c-.64-1.227-1.28-2.446-1.92-3.658A388.782 388.782 0 0 0 23.31 29.55c.976.91 1.936 1.823 2.887 2.767a162.416 162.416 0 0 1 11.316 12.468l1.513-.405a166.78 166.78 0 0 0-7.822-8.996c-3.64-3.151-7.369-6.201-11.261-8.99a.761.761 0 0 1-.144-1.093.722.722 0 0 0-.137.188c-.012.02-.025.038-.036.059-.01.021-.015.06-.023.09a.58.58 0 0 0 .078.488c.538.895 1.054 1.804 1.582 2.705 3.41 5.796 6.676 11.692 9.73 17.691l1.414-.368Z" fill="#1A1A1A"/><path d="M19.943 26.393c3.892 2.79 7.621 5.84 11.252 8.993a276.035 276.035 0 0 1 6.776 6.088c.88.818 1.74 1.657 2.608 2.49l1.618-.434c-1.068-1.03-2.134-2.064-3.22-3.073-5.784-5.381-11.816-10.632-18.242-15.25l-.053-.038-.023-.018a.594.594 0 0 0-.86.146.76.76 0 0 0 .144 1.096Z" fill="#1A1A1A"/><path d="m61.543 83.35 6.856-4.306-10.824-3.97-8.316 4.627 12.284 3.649Zm-3.526-9.632L68.3 77.493a129.378 129.378 0 0 0-1.789-2.859C61.171 68.5 49.87 55.676 39.57 45.068c7.177 8.928 13.472 18.605 18.447 28.65Zm9.273 32.185 9.554 4.506c-.295-.598-.743-1.417-.812-1.582a78.278 78.278 0 0 0-1.07-2.466 83.616 83.616 0 0 0-1.91-3.895c-3.259-6.245-7.18-12.377-11.81-17.715l-11.072-3.29c7.102 6.83 12.593 15.836 17.12 24.442Zm16.488 46.332a.589.589 0 0 1-.28-.199c-11.857-14.843-28.483-26.737-45.23-35.571.493 1.361 41.573 27.054 46.326 38.326a81.275 81.275 0 0 0-.394-1.692.626.626 0 0 1-.318-.422c-.022-.149-.069-.294-.104-.442Zm-8.267-17.091a194.092 194.092 0 0 1 6.623 11.262c-3.061-9.693-7.723-19.055-12.748-27.778l-9.467-3.281c6.26 5.572 11.172 12.803 15.592 19.797Zm-4.899-16.851c-.11.104-.04.11 0 0Zm1.591-20.428c-2.868-5.963-5.972-12.168-7.642-14.72l-1.842 1.16a88.998 88.998 0 0 1 9.484 13.56Zm-23.929 3.637c-4.308-8.357-11.023-15.995-18.453-21.767 0 0 18.033 22.051 19.245 26.033.205-.18.972-.639 1.029-.899.099-.462-1.43-2.609-1.82-3.367Zm22.49 16.675c.032.061.07.119.11.175l.737-.65c-.178.101-.353.21-.533.301-.108.052-.212.11-.314.174Zm-1.017-.936 5.504-4.338c.397-.311.975-.65 1.335-1.041l-9.754-4.597-8.847 5.904 11.762 4.072Z" fill="#EA90A6"/><path d="M55.743 113.149a.681.681 0 0 1 .07-.156.618.618 0 0 1 .3-.285l9.713-6.488c-4.904-9.277-10.896-18.978-18.911-25.811a.567.567 0 0 1-.097-.147.496.496 0 0 1-.028-.045.72.72 0 0 1 .073-.75.66.66 0 0 1 .235-.208l9.446-5.255c-5.133-10.28-11.632-20.157-19.05-29.218l-5.088 1.364c4.079 7.804 8.051 15.905 10.264 24.392a.742.742 0 0 1-.327.801l-10.858 7.92c8.456 6.732 15.924 15.773 19.956 25.793a.694.694 0 0 1-.181.689l-2.95 2.58c-.905 1.205-2.455 2.432-4.076 3.564l-4.363 3.815c14.673 7.839 29.24 18.05 40.515 30.497a196.669 196.669 0 0 0-5.328-9.087c-5.182-8.348-11.022-17.206-19.02-23.124-.024-.018-.034-.042-.056-.061a.608.608 0 0 1-.132-.149.686.686 0 0 1-.107-.631Z" fill="#EA90A6"/><path d="M41.285 70.388c-.2-.092-.333-.899-.46-1.161-.642-1.311-.944-2.934-1.454-4.304-1.326-3.567-2.873-7.05-4.494-10.49a293.544 293.544 0 0 0-3.882-7.901l-2.961.793c4.423 10.553 9.327 21.707 10.52 22.273 1.094.525-.858 2.856-3.189 5.149a127.516 127.516 0 0 0 5.473-4.074c.103-.073.286-.175.447-.285Z" fill="#EA90A6"/><path d="m39.016 44.383-1.513.405c7.416 9.056 13.917 18.937 19.05 29.218l-9.447 5.255a.643.643 0 0 1 .508-.05l1.645.49 8.316-4.627-.254-.092c-.857-.316-.487-1.698.379-1.381l.318.119c-4.976-10.047-11.27-19.724-18.449-28.653a94.736 94.736 0 0 0-.553-.684Zm7.782 35.836a.792.792 0 0 1 .074-.75.722.722 0 0 0-.074.75Zm.439.371a.664.664 0 0 1-.41-.326.566.566 0 0 0 .096.146c8.013 6.826 14.005 16.527 18.912 25.812l-9.713 6.488a.61.61 0 0 1 .467-.019l1.405.486 8.847-5.904-.42-.198c-.832-.391-.113-1.629.716-1.239l.162.077c-4.526-8.603-10.018-17.612-17.124-24.45l-2.938-.873Z" fill="#1A1A1A"/><path d="M83.498 152.036a.584.584 0 0 0 .28.199 85.994 85.994 0 0 0-1.644-5.829 194.422 194.422 0 0 0-6.623-11.262c-4.42-6.996-9.333-14.225-15.593-19.797l-3.711-1.282a.74.74 0 0 1-.223-.13c.021.019.032.042.055.061 7.999 5.918 13.838 14.776 19.02 23.124a209.06 209.06 0 0 1 5.329 9.087c-11.278-12.453-25.844-22.664-40.517-30.503l4.363-3.815 4.075-3.564 2.95-2.58a.695.695 0 0 0 .182-.689c-4.03-10.014-11.5-19.063-19.956-25.793l10.859-7.916a.742.742 0 0 0 .327-.801c-2.213-8.487-6.185-16.588-10.264-24.393l-1.412.379a287.405 287.405 0 0 1 3.882 7.9c1.621 3.44 3.167 6.922 4.494 10.491.51 1.37.802 2.996 1.454 4.304.127.262.26 1.07.46 1.16-.16.111-.351.215-.445.294-1.778 1.409-3.619 2.75-5.473 4.073-1.804 1.287-3.621 2.558-5.406 3.858-.328.24-.54.813-.14 1.123 7.431 5.78 14.145 13.41 18.453 21.767.392.758 1.92 2.905 1.82 3.367-.056.26-.829.721-1.028.899l-4.189 3.662-6.759 5.914a.713.713 0 0 0-.085.899c.06.091.14.167.235.222 16.747 8.834 33.373 20.728 45.23 35.571Zm-27.753-38.894Z" fill="#1A1A1A"/><path d="M55.85 113.78a.77.77 0 0 1-.107-.631.691.691 0 0 0 .107.631Zm14.735-35.332c-.045-.076-.095-.15-.142-.227-7.675-12.844-17.494-24.31-28.246-34.69l-1.614.432C50.264 53.239 59.2 63.385 66.516 74.64c.612.942 1.2 1.9 1.788 2.858.635.231 1.268.463 1.9.697a.763.763 0 0 1 .369 1.129.715.715 0 0 0 .062-.8l-.05-.077Zm6.976 33.873-.976-.461c-.36.391-.938.728-1.334 1.041l-5.505 4.338.322.118c.866.3.494 1.682-.378 1.38l-.302-.104c5.024 8.723 9.686 18.086 12.748 27.778a86.078 86.078 0 0 1 1.643 5.83c.04.147.08.293.118.438a.639.639 0 0 0 .317.423c.464.264 1.235-.108 1.074-.795-2.5-10.6-7.311-20.683-12.39-30.252-.607-1.142-1.16-2.732-2.017-3.709a1.253 1.253 0 0 1-.11-.175c.102-.066.207-.125.316-.179.18-.091.356-.2.533-.3 2.411-1.382 4.667-3.799 6.818-5.494a.62.62 0 0 0 .186-.397.764.764 0 0 1-.406.515.76.76 0 0 1-.657.005Zm-6.95 5.972c-.04.109-.109.103 0 0Zm-.789-38.726-1.423-.523-6.856 4.306.296.088c.888.261.505 1.644-.38 1.38l-.221-.066c4.63 5.338 8.552 11.47 11.81 17.715a89.493 89.493 0 0 1 1.91 3.895c.374.816.73 1.645 1.07 2.466.07.165.517.984.813 1.582l1.431.673c.088.042.166.1.23.172a92.036 92.036 0 0 0-6.299-13.39 88.99 88.99 0 0 0-9.484-13.56l1.847-1.16 5.693-3.57a.609.609 0 0 1-.437-.008Z" fill="#1A1A1A"/><path d="m78.276 111.082-1.432-.673-9.554-4.506-.162-.077c-.829-.391-1.548.846-.715 1.239l.42.198 9.752 4.597.976.461a.757.757 0 0 0 .907-.216.76.76 0 0 0 .146-.297.593.593 0 0 0-.108-.554.724.724 0 0 0-.23-.172Zm-21.694 1.598a.6.6 0 0 0-.467.019.622.622 0 0 0-.3.285.69.69 0 0 0-.07.156.777.777 0 0 0 .24.78.721.721 0 0 0 .222.131l3.708 1.297 9.468 3.281.301.103c.873.302 1.245-1.08.379-1.38l-.322-.118-11.76-4.074-1.399-.48Zm-8.968-33.47a.643.643 0 0 0-.508.051.66.66 0 0 0-.234.208.79.79 0 0 0-.074.75.51.51 0 0 0 .029.045.665.665 0 0 0 .41.326l2.931.871 11.072 3.29.222.066c.888.263 1.259-1.116.379-1.38l-.296-.088-12.286-3.648-1.645-.49Zm22.588-1.023a99.382 99.382 0 0 0-1.9-.697l-10.28-3.773-.319-.12c-.866-.315-1.236 1.066-.378 1.382l.253.092 10.825 3.97 1.422.523c.14.054.295.054.435 0a.592.592 0 0 0 .31-.252.764.764 0 0 0-.368-1.125Z" fill="#1A1A1A"/><path d="M398.476 34.14a.49.49 0 0 1-.194-.21c-7.135-14.12-18.66-26.65-30.805-36.704.171 1.193 29.276 29.139 31.228 39.137-.005-.47-.017-.956-.032-1.446a.526.526 0 0 1-.187-.398c.007-.126-.006-.252-.01-.378Zm-3.825-15.34a161.443 161.443 0 0 1 3.479 10.309c-.843-8.423-3.047-16.849-5.656-24.816L385.316.005c4.153 5.609 6.925 12.34 9.335 18.795Zm-1.119-14.57c-.11.066-.053.083 0 0Zm.143-.07a.94.94 0 0 0 .06.162l.71-.404c-.162.052-.323.11-.485.154a2.64 2.64 0 0 0-.285.089Zm-.67-.936 5.226-2.597c.377-.186.905-.364 1.265-.621l-7.166-5.41-8.218 3.305 8.893 5.323Z" fill="#EA90A6"/><path d="M382.287-2.499a.554.554 0 0 1 .084-.115.517.517 0 0 1 .293-.18l9.024-3.634c-2.417-8.397-5.647-17.326-11.016-24.263a.502.502 0 0 1-.053-.135.587.587 0 0 1-.016-.042.6.6 0 0 1 .188-.599.553.553 0 0 1 .226-.13l8.596-2.672c-2.431-9.256-6.045-18.414-10.547-27.064l-4.38.244c1.995 7.057 3.851 14.337 4.208 21.632a.618.618 0 0 1-.403.598l-10.2 4.604c5.745 6.929 10.291 15.572 11.87 24.427a.574.574 0 0 1-.266.53l-2.845 1.6c-.942.828-2.415 1.565-3.929 2.21l-4.207 2.367c10.624 8.89 20.757 19.697 27.826 31.765a164.53 164.53 0 0 0-2.794-8.316c-2.801-7.687-6.051-15.903-11.562-22.09-.016-.02-.02-.04-.035-.06a.556.556 0 0 1-.082-.143.571.571 0 0 1 .02-.533Z" fill="#EA90A6"/><path d="M398.282 33.93a.49.49 0 0 0 .194.21 71.649 71.649 0 0 0-.346-5.031 161.905 161.905 0 0 0-3.479-10.31c-2.41-6.455-5.182-13.185-9.335-18.794l-2.807-1.678a.608.608 0 0 1-.159-.144c.014.02.018.04.034.06 5.511 6.187 8.761 14.403 11.562 22.09 1 2.744 1.931 5.516 2.794 8.316-7.069-12.073-17.202-22.88-27.825-31.77l4.206-2.366 3.929-2.211 2.845-1.6a.571.571 0 0 0 .266-.53c-1.579-8.85-6.125-17.5-11.87-24.427l10.2-4.601a.62.62 0 0 0 .404-.598c-.357-7.294-2.214-14.575-4.209-21.632l-1.215.068a237.07 237.07 0 0 1 1.817 7.101c.735 3.081 1.402 6.183 1.875 9.318.182 1.204.144 2.578.451 3.755.06.236.03.916.178 1.025-.15.063-.323.115-.413.163-1.689.846-3.418 1.625-5.155 2.388-1.69.741-3.388 1.467-5.064 2.223-.309.139-.58.57-.307.891 5.073 5.978 9.244 13.342 11.332 20.889.19.684 1.069 2.695.91 3.054-.091.203-.799.447-.992.558l-4.039 2.271-6.517 3.668a.607.607 0 0 0-.263.453.59.59 0 0 0 .193.487c12.145 10.055 23.67 22.584 30.805 36.705Z" fill="#1A1A1A"/><path d="m400.213.546-.717-.542c-.36.258-.889.434-1.265.621l-5.226 2.597.242.152c.654.392.116 1.455-.544 1.06l-.228-.136c2.608 7.967 4.812 16.393 5.655 24.816.17 1.679.296 3.357.346 5.031l.021.378a.523.523 0 0 0 .187.398c.333.295 1.025.123 1.011-.464-.232-9.067-2.434-18.106-4.943-26.772-.3-1.034-.479-2.424-1.011-3.367a1.031 1.031 0 0 1-.06-.161 2.65 2.65 0 0 1 .288-.092c.162-.044.324-.102.486-.154 2.2-.716 4.452-2.3 6.494-3.316a.517.517 0 0 0 .219-.292.625.625 0 0 1-.419.35.631.631 0 0 1-.536-.107Zm-6.683 3.683c-.051.082-.107.066 0 0Zm5.958-31.701-1.07-.668-6.323 2.34.226.123c.679.364.132 1.426-.544 1.06l-.17-.091c2.865 5.14 5.016 10.806 6.607 16.452.326 1.16.624 2.327.893 3.501.166.729.314 1.465.452 2.192.028.147.254.89.392 1.428l1.053.793c.064.049.118.11.158.18a76.588 76.588 0 0 0-2.852-11.989 74.11 74.11 0 0 0-5.419-12.67l1.703-.63 5.249-1.94a.506.506 0 0 1-.355-.08Z" fill="#1A1A1A"/><path d="m401.007-.342-1.052-.793-7.02-5.301-.119-.09c-.609-.46-1.406.425-.794.887l.308.233 7.166 5.41.717.542a.634.634 0 0 0 1.009-.473.497.497 0 0 0-.215-.415Zm-17.956-2.395a.495.495 0 0 0-.384-.065.517.517 0 0 0-.293.181.557.557 0 0 0-.084.116.65.65 0 0 0 .062.677.628.628 0 0 0 .16.144l2.801 1.689 7.158 4.288.228.136c.66.395 1.199-.668.544-1.06l-.242-.151-8.891-5.326-1.059-.63Z" fill="#1A1A1A"/><path d="M197.046 8.168c-.519.702-.876 1.286-.846 1.465.039.247 1.277 5.468 2.957 11.399a4450.24 4450.24 0 0 1-.921-5.429 365.937 365.937 0 0 1-1.19-7.435Zm-4.508-.04a5710.68 5710.68 0 0 0-7.978 7.473c3.826-2.97 8.035-7.015 11.902-11.041v-.089l-3.924 3.657Zm-9.851 6.768a24576.084 24576.084 0 0 1 26.956-25.2l1.052-.99c.205-.662.401-1.325.606-1.979L191.276 4.68l-12.144 10.887c-.629.547-1.866 2.044-3.103 3.103 2.875.839 4.313-1.574 6.658-3.774Zm46.113-44.21c.915-2.707.712-5.246.222-7.888-.057.15-.123.311-.168.448a356.996 356.996 0 0 1-2.294 6.626c-2.227 6.277-4.525 12.53-6.836 18.778a3900.284 3900.284 0 0 1-8.777 23.46c.839-.572 1.685-1.139 2.529-1.705a2430.645 2430.645 0 0 0 9.761-24.796c1.908-4.949 3.863-9.898 5.563-14.923ZM199.921 5.332c.513.864.948 1.732 1.238 2.18.957 1.485 1.88 3.004 2.808 4.513.079-.297.168-.594.247-.89-.881-1.522-1.764-3.044-2.635-4.57-.361-.627-.972-.98-1.658-1.233Zm6.157-.938a683.043 683.043 0 0 1 3.575-12.243l-.777.725-2.798 11.518Z" fill="#fff"/><path d="M231.997-33.11c-.099-2.887-.8-5.02-1.638-6.56.742 3.277 1.516 6.662.494 9.898-1.558 4.872-3.483 9.65-5.319 14.413-3.086 8.027-6.251 16.024-9.438 24.002.728-.517 1.836-1.42 2.955-2.04l-1.237-.108s14.44-31.91 14.183-39.605Zm-10.645 48.075c-1.237 2.793-3.007 5.431-4.565 8.046a790.967 790.967 0 0 1-9.272 15.119.94.94 0 0 1-.185.198c4.651-2.227 16.108-24.358 15.979-26.033-.141-1.819-1.361-5.444-1.361-5.444.22 2.74.527 5.577-.596 8.114Z" fill="#fff"/><path d="M215.156 11.41a348.951 348.951 0 0 0-5.57 3.772c-.623.431-1.588-.294-1.316-1.011a3681.53 3681.53 0 0 0 11.357-30.423c2.136-5.802 4.264-11.61 6.295-17.45.619-1.778 1.25-3.56 1.794-5.364-1.079.82-2.7 1.589-3.511 2.195-2.487 1.851-4.937 3.754-7.384 5.657-4.983 3.872-9.932 7.787-14.982 11.567-1.594 1.195-6.342 5.939-8.66 5.5-2.546-.482.17-6.027.603-7.323 2.116-6.347 4.454-12.62 6.704-18.917.989-2.8 1.994-5.604 2.907-8.432.297-.918 1.126-2.722 1.237-3.96-.313-.015-.627 0-.938.048-1.017.22-2.051.373-3.07.586-2.834.596-5.649 1.292-8.45 2.02-2.994.779-5.978 1.602-8.93 2.525-1.861.58-4.665 1.057-6.223 2.277-2.413 1.88-2.116 8.83-2.45 11.662a469.507 469.507 0 0 0-2.163 23.068c-.561 8.165-1.044 16.613.53 24.697.223 1.158.621 2.244.91 3.372a.99.99 0 0 1 .038.401c.764-.364 1.643-1.485 2.227-2.016a23524.194 23524.194 0 0 0 36.353-32.58c.631-.565 1.781-.028 1.497.873-3.17 10.031-6.186 20.131-8.814 30.318-.195.758-1.237.859-1.635.213a411.714 411.714 0 0 0-2.903-4.701 135.02 135.02 0 0 0-2.15-3.34c0-.018-.037-.052-.049-.07.247 1.334.608 2.806.742 3.675a453.762 453.762 0 0 0 1.89 10.971c.577 3.125 1.168 6.25 1.866 9.348.247 1.086.673 2.227.824 3.318.824-1.546 2.583-3.377 3.36-4.615a416.616 416.616 0 0 0 5.196-8.543 562.082 562.082 0 0 0 4.929-8.505c.233-.41.799-1.789 1.403-3.04a107.358 107.358 0 0 0-3.464 2.226Zm-38.264-46.52c.171-.683 1.223-.39 1.052.29a21.504 21.504 0 0 0-.586 3.582c-.055.696-1.146.698-1.092 0 .099-1.306.309-2.601.626-3.872ZM175.009-4.1c0-.703 1.087-.7 1.089 0a14.1 14.1 0 0 1-.336 3.152c-.151.686-1.203.394-1.052-.29.206-.94.306-1.9.299-2.862Zm-.712 10.2a5.52 5.52 0 0 1 .077-2.747c.193-.673 1.237-.386 1.051.29a4.352 4.352 0 0 0-.077 2.164c.154.686-.898.978-1.051.292Zm.762 6.334c-.116-.706-.235-1.41-.351-2.116-.117-.705.937-.99 1.051-.29.114.7.235 1.41.352 2.116.116.705-.933.98-1.047.29h-.005Zm1.16-36.453.141-2.989c.035-.7 1.124-.703 1.092 0-.047.99-.094 1.986-.144 2.99-.027.7-1.118.7-1.084 0h-.005Zm1.812 25.734c0 .702-1.089.702-1.089 0v-3.17c0-.703 1.089-.7 1.089 0v3.17Zm1.764 7.227c0 .703-1.091.703-1.091 0V6.126c0-.702 1.091-.7 1.091 0v2.816Zm1.056-36.311c-.047.698-1.138.7-1.091 0 .073-1.122.25-2.234.527-3.323.171-.68 1.223-.391 1.049.29a16.847 16.847 0 0 0-.48 3.035l-.005-.002Zm41.372-4.917c.215-.665 1.267-.38 1.051.29l-1.14 3.555c-.216.666-1.267.379-1.052-.29.383-1.175.765-2.36 1.146-3.552l-.005-.003Zm-1.341 6.84c-.248.697-.495 1.397-.743 2.098-.235.658-1.286.373-1.051-.29l.742-2.1c.243-.654 1.294-.37 1.057.294l-.005-.003Zm-2.475-3.296c.248-.656 1.292-.372 1.052.29l-.891 2.473c-.247.656-1.291.372-1.051-.29l.89-2.473Zm-.93 9.501c.233-.658 1.287-.373 1.052.29l-.817 2.313c-.233.658-1.287.374-1.052-.29l.817-2.313Zm-43.428 39.016c.137.083.28.154.428.213a11.366 11.366 0 0 1-.42-.215l-.008.002Zm40.382 3.685c1.633-2.723 3.293-5.444 4.778-8.245.836-1.584 1.071-3.177 1.099-4.828-.094.154-.201.317-.28.458-1.69 3.063-3.444 6.09-5.216 9.108-2.969 5.043-5.822 10.338-9.346 15.02a7.46 7.46 0 0 1-.494.571l1.469.9a879.683 879.683 0 0 0 7.99-12.985Z" fill="#fff"/><path d="M215.082 11.196c-.426 1.06-2.158.594-1.732-.475l.123-.316c-.843.566-1.69 1.133-2.528 1.704 2.949-7.81 5.875-15.63 8.776-23.46 2.311-6.247 4.61-12.5 6.837-18.777a327.117 327.117 0 0 0 2.294-6.626c.044-.137.111-.297.168-.448-.218-1.173-.495-2.363-.742-3.603a.903.903 0 0 1 .155-.727.918.918 0 0 1 .646-.37 1.333 1.333 0 0 0-.321.035c-.861.142-1.98.956-2.722 1.465-4.521 3.118-8.802 6.612-13.132 9.984-4.656 3.63-9.296 7.292-14.076 10.759-.282.864-.565 1.728-.849 2.59-.359 1.094-2.088.624-1.732-.474.057-.171.111-.34.166-.508-.681.364-1.448.76-2.076 1.173.193-.663.304-1.45.47-1.98 2.227-7.093 4.909-14.046 7.398-21.046 1.119-3.14 2.247-6.283 3.237-9.465.024-.076.059-.17.084-.247a26.367 26.367 0 0 0-.871-3.825c-.329-1.11 1.4-1.58 1.732-.476v-.014a.69.69 0 0 0-.06-.137.736.736 0 0 0-.633-.494c-1.772-.817-6.013.536-8.348 1.252-.471.146-.889.27-1.161.336-5.74 1.368-11.53 2.84-17.073 4.865-3.38 1.237-4.454 1.799-5.077 5.344-1.238 6.988-1.859 14.117-2.514 21.176-.379 4.085-.743 8.2-1.015 12.317-.369 5.617-.542 11.244-.146 16.84.154 2.149.178 12.073 3.496 12.244.062 0 .134-.032.201-.037-.124-.067-.23-.109-.357-.183-.989-.574-.098-2.123.904-1.547.448.265.926.474 1.425.624 1.237-1.06 2.474-2.556 3.098-3.113L191.271 4.67l20.025-17.952c-.205.661-.401 1.324-.606 1.98l.116-.109c.841-.787 2.111.48 1.267 1.267l-2.427 2.269a572.35 572.35 0 0 0-4.764 16.541c.342.611.681 1.225 1.03 1.826.579.99-.97 1.903-1.547.906l-.161-.277c-.079.296-.168.594-.247.89-.928-1.509-1.851-3.023-2.808-4.513-.287-.443-.723-1.316-1.238-2.18a17.492 17.492 0 0 0-2.744-.626.761.761 0 0 1-.561-.388l-.164.153v.09c.038.858.31 1.828.411 2.535.052.36.119.713.173 1.072.367 2.474.763 4.953 1.191 7.435.306 1.802.613 3.611.92 5.43.742 4.285 1.529 8.58 2.685 12.745.171.73.467 1.424.876 2.053-.035-.636.611-1.296 1.313-.866l.946.58a7.46 7.46 0 0 0 .495-.572c3.523-4.682 6.383-9.977 9.345-15.02 1.772-3.018 3.526-6.045 5.216-9.108.079-.14.186-.304.28-.458.017-1.14-.052-2.306-.151-3.528-.092-1.153 1.7-1.143 1.791 0a.87.87 0 0 0-.443-.775c-.678-.287-1.568.02-2.474.515-1.118.619-2.227 1.522-2.954 2.039a91.238 91.238 0 0 1-.98 2.573Zm-2.804 9.53a343.492 343.492 0 0 1-5.196 8.543c-.777 1.237-2.536 3.068-3.36 4.615-.151-1.101-.579-2.227-.824-3.318-.698-3.098-1.289-6.223-1.866-9.348a469.92 469.92 0 0 1-1.885-10.954c-.139-.869-.51-2.341-.742-3.675.012.017.039.052.049.07.742 1.098 1.445 2.226 2.15 3.34a321.13 321.13 0 0 1 2.903 4.701c.391.646 1.44.544 1.635-.213 2.638-10.187 5.644-20.29 8.814-30.318.285-.9-.866-1.438-1.497-.874a107027.907 107027.907 0 0 1-36.348 32.566c-.592.529-1.47 1.652-2.227 2.016a.988.988 0 0 0-.038-.4c-.289-1.129-.687-2.215-.91-3.373-1.574-8.084-1.091-16.534-.53-24.697a466.985 466.985 0 0 1 2.163-23.068c.334-2.831.037-9.782 2.45-11.662 1.566-1.22 4.369-1.698 6.228-2.279 2.952-.923 5.938-1.747 8.93-2.526 2.801-.728 5.616-1.423 8.45-2.02 1.019-.212 2.053-.366 3.07-.586.311-.047.625-.062.938-.047-.116 1.252-.945 3.044-1.237 3.96-.926 2.83-1.923 5.633-2.92 8.43-2.242 6.301-4.587 12.569-6.703 18.916-.433 1.296-3.15 6.841-.604 7.324 2.326.438 7.074-4.305 8.661-5.5 5.05-3.781 9.998-7.696 14.982-11.568 2.447-1.903 4.897-3.806 7.383-5.657.812-.606 2.433-1.375 3.511-2.194-.544 1.803-1.175 3.585-1.793 5.364-2.032 5.84-4.16 11.647-6.295 17.45a3409.842 3409.842 0 0 1-11.358 30.434c-.272.717.693 1.442 1.317 1.012a335.347 335.347 0 0 1 5.57-3.774c1.14-.76 2.291-1.509 3.464-2.226-.604 1.252-1.171 2.63-1.403 3.04a528.064 528.064 0 0 1-4.932 8.495Z" fill="#1A1A1A"/><path d="M228.275-40.805c.26 1.237.53 2.43.742 3.603.495 2.642.693 5.181-.222 7.888-1.7 5.025-3.655 9.974-5.563 14.923a2072.48 2072.48 0 0 1-9.761 24.796l-.124.316c-.428 1.07 1.304 1.534 1.732.475.339-.85.666-1.707 1.005-2.558 3.187-7.985 6.352-15.982 9.437-24.002 1.836-4.77 3.761-9.54 5.32-14.413 1.032-3.216.247-6.609-.495-9.885a66.941 66.941 0 0 1-.356-1.613.77.77 0 0 0-.616-.626.767.767 0 0 0-.31.007.913.913 0 0 0-.789 1.089ZM196.452 4.471l.164-.153a.964.964 0 0 1 1.036-1.34l.332.06c3.629-3.393 7.258-6.784 10.887-10.174l.777-.725 2.427-2.27c.844-.786-.425-2.053-1.266-1.266l-.117.109-1.051.99c-5.264 4.914-10.53 9.83-15.797 14.75-3.721 3.478-7.442 6.96-11.162 10.444-2.345 2.2-3.783 4.612-6.651 3.773a6.46 6.46 0 0 1-1.442-.626c-.99-.577-1.905.972-.903 1.546.126.075.232.117.356.183.124.067.282.149.421.216 2.996 1.484 4.612.76 7-1.485a937.77 937.77 0 0 1 3.093-2.897c2.657-2.491 5.316-4.982 7.977-7.473l3.919-3.662Zm23.705 2.398c.099 1.222.168 2.387.151 3.528-.028 1.65-.263 3.244-1.099 4.828-1.485 2.806-3.145 5.525-4.778 8.244a755.24 755.24 0 0 1-7.985 12.986l-1.467-.91-.945-.58c-.703-.43-1.349.23-1.314.866a.807.807 0 0 0 .411.68l3.162 1.94a.882.882 0 0 0 1.039-.123.944.944 0 0 0 .186-.198 785.867 785.867 0 0 0 9.271-15.119c1.559-2.615 3.328-5.253 4.565-8.046 1.124-2.537.817-5.387.597-8.106-.094-1.143-1.878-1.153-1.794.01Z" fill="#1A1A1A"/><path d="m197.984 3.038-.332-.059a.962.962 0 0 0-1.036 1.339.755.755 0 0 0 .561.388c.93.135 1.848.344 2.744.626.686.248 1.297.606 1.656 1.237.871 1.527 1.754 3.049 2.635 4.57l.161.277c.576.99 2.125.095 1.546-.905-.349-.601-.688-1.215-1.029-1.826-.668-1.195-1.336-2.393-2.066-3.546-.931-1.475-3.17-1.801-4.84-2.1Zm-22.631 2.769a4.352 4.352 0 0 1 .077-2.165c.193-.675-.859-.963-1.052-.29a5.531 5.531 0 0 0-.076 2.747c.148.685 1.2.393 1.051-.292Zm1.594-7.262v3.172c0 .703 1.089.703 1.089 0v-3.172c0-.7-1.089-.703-1.089 0Zm-2.235 11.773c.117.705.236 1.41.352 2.116.116.705 1.165.398 1.051-.29-.113-.688-.235-1.41-.351-2.116-.116-.705-1.165-.398-1.052.29Zm3.997-4.192v2.821c0 .703 1.091.703 1.091 0v-2.82c0-.703-1.091-.706-1.091 0Z" fill="#1A1A1A"/><path d="M356.001 166.929c-.587-.698-.996-1.282-.977-1.469.025-.261.971-5.775 2.331-12.058l-.603 5.71a379.067 379.067 0 0 0-.751 7.817Zm-4.69.336a5743.36 5743.36 0 0 1-8.792-7.254c4.176 2.839 8.822 6.774 13.11 10.711l.006.092-4.324-3.549Zm-10.695-6.398c4.096 3.384 8.197 6.764 12.301 10.139 5.799 4.777 11.601 9.551 17.405 14.322l1.159.961c.257.677.504 1.354.761 2.02l-22.018-17.371-13.353-10.536c-.69-.528-2.075-2.005-3.432-3.026 2.937-1.061 4.591 1.356 7.177 3.491Zm50.889 42.991c1.13 2.758 1.085 5.413.748 8.196-.069-.154-.149-.317-.204-.456a380.99 380.99 0 0 0-2.822-6.746c-2.729-6.387-5.531-12.744-8.345-19.095a3991.332 3991.332 0 0 0-10.672-23.841c.911.539 1.829 1.074 2.744 1.608a2545.42 2545.42 0 0 1 11.784 25.167c2.31 5.026 4.668 10.048 6.767 15.167Zm-32.326-34.166c.476-.933.873-1.865 1.145-2.35.899-1.608 1.76-3.25 2.627-4.882.102.304.214.607.316.911-.817 1.642-1.637 3.283-2.443 4.929-.335.676-.948 1.084-1.645 1.392Zm6.469.572a721.331 721.331 0 0 0 4.523 12.508l-.856-.703-3.667-11.805Z" fill="#fff"/><path d="M395.081 207.599c.086 3.012-.503 5.278-1.275 6.935.557-3.459 1.142-7.032-.134-10.334-1.941-4.968-4.258-9.815-6.481-14.652-3.737-8.152-7.555-16.268-11.394-24.362.791.491 2.003 1.358 3.208 1.929l-1.28.194s17.119 32.264 17.356 40.29Zm-14.229-49.337c-1.47-2.826-3.485-5.456-5.278-8.076a822.064 822.064 0 0 0-10.64-15.127.997.997 0 0 0-.206-.194c4.987 2.013 18.36 24.296 18.336 26.048-.027 1.902-1.06 5.754-1.06 5.754.05-2.865.184-5.839-1.152-8.405Z" fill="#fff"/><path d="M374.637 162.369a356.834 356.834 0 0 1-6.044-3.563c-.678-.407-1.634.411-1.304 1.14a3814.14 3814.14 0 0 1 13.813 30.918c2.603 5.899 5.198 11.804 7.695 17.749.76 1.811 1.534 3.624 2.219 5.465-1.177-.781-2.914-1.476-3.798-2.054-2.71-1.763-5.384-3.583-8.056-5.403-5.44-3.704-10.847-7.454-16.351-11.058-1.736-1.139-6.989-5.765-9.373-5.157-2.619.669.572 6.262 1.108 7.583 2.617 6.467 5.462 12.842 8.215 19.249 1.214 2.85 2.443 5.702 3.579 8.586.369.935 1.35 2.759 1.547 4.039a4.927 4.927 0 0 1-.979.012c-1.073-.162-2.16-.254-3.235-.409-2.987-.435-5.963-.974-8.926-1.548-3.167-.615-6.327-1.277-9.46-2.044-1.974-.481-4.924-.794-6.626-1.961-2.634-1.8-2.78-9.053-3.313-11.977a486.868 486.868 0 0 1-3.762-23.868c-1.12-8.461-2.176-17.221-1.067-25.738.155-1.22.499-2.376.726-3.57.033-.137.037-.28.013-.419.819.328 1.807 1.437 2.45 1.953a24805.765 24805.765 0 0 1 39.97 31.526c.693.546 1.856-.088 1.501-1.007-3.957-10.232-7.758-20.547-11.16-30.977-.253-.775-1.344-.812-1.716-.114a422.783 422.783 0 0 1-2.713 5.083 135.683 135.683 0 0 1-2.019 3.617c.001.018-.035.057-.047.076.17-1.405.45-2.96.532-3.873.369-3.855.785-7.703 1.249-11.543.395-3.29.806-6.581 1.329-9.851.186-1.147.555-2.362.64-3.508.959 1.556 2.91 3.346 3.8 4.583a437.71 437.71 0 0 1 5.967 8.552 590.157 590.157 0 0 1 5.688 8.528c.269.412.949 1.81 1.659 3.073a112.992 112.992 0 0 1-3.751-2.09Zm-36.776 50.921c.222.7 1.297.327 1.075-.37a22.53 22.53 0 0 1-.845-3.691c-.102-.72-1.238-.651-1.136.072a24.22 24.22 0 0 0 .906 3.989Zm-3.992-32.15c.046.732 1.177.658 1.133-.071a14.704 14.704 0 0 0-.556-3.259c-.202-.703-1.278-.33-1.076.371.276.965.443 1.957.499 2.959Zm-1.41-10.568a5.766 5.766 0 0 0 .26 2.853c.245.688 1.313.321 1.076-.37a4.526 4.526 0 0 1-.222-2.248c.115-.723-.999-.958-1.114-.235Zm.379-6.643c-.075.742-.153 1.484-.227 2.225-.075.742 1.04.969 1.113.233.073-.737.152-1.484.227-2.225.075-.742-1.035-.959-1.108-.233h-.005Zm3.596 37.863.342 3.102c.082.726 1.215.657 1.136-.072-.113-1.027-.228-2.061-.345-3.101-.075-.727-1.21-.656-1.128.071h-.005Zm.199-26.901c-.046-.732-1.179-.66-1.133.071l.207 3.299c.046.731 1.179.657 1.133-.071l-.207-3.299Zm1.362-7.638c-.046-.732-1.181-.66-1.135.071l.184 2.931c.046.731 1.182.657 1.136-.072l-.185-2.93Zm3.479 37.722c-.095-.723-1.231-.654-1.136.072.15 1.162.406 2.309.767 3.424.222.697 1.297.327 1.072-.37a17.525 17.525 0 0 1-.698-3.128l-.005.002Zm43.38 2.407c.268.679 1.344.314 1.076-.37l-1.42-3.626c-.268-.679-1.344-.311-1.076.37.476 1.199.951 2.407 1.425 3.623l-.005.003Zm-1.844-7.03-.91-2.135c-.287-.67-1.363-.305-1.075.37l.91 2.138c.295.664 1.371.299 1.08-.376l-.005.003Zm-2.359 3.592c.301.666 1.369.302 1.076-.37l-1.09-2.517c-.3-.666-1.368-.302-1.075.37l1.089 2.517Zm-1.591-9.828c.286.67 1.364.305 1.076-.37l-1.002-2.354c-.285-.67-1.363-.305-1.075.37l1.001 2.354Zm-47.754-37.761c.136-.096.281-.179.431-.25-.139.079-.279.163-.423.252l-.008-.002Zm41.787-6.48c1.878 2.725 3.784 5.449 5.513 8.267.974 1.594 1.323 3.237 1.459 4.953-.108-.154-.229-.317-.321-.458-1.959-3.078-3.983-6.113-6.025-9.138-3.421-5.054-6.737-10.378-10.711-15.02a7.703 7.703 0 0 0-.552-.562l1.47-1.034a925.919 925.919 0 0 1 9.167 12.992Z" fill="#fff"/><path d="M374.573 162.595c-.512-1.074-2.284-.477-1.771.608l.149.321c-.915-.534-1.833-1.068-2.743-1.608a4307.277 4307.277 0 0 1 10.671 23.841c2.815 6.351 5.617 12.708 8.346 19.095a340.306 340.306 0 0 1 2.821 6.747c.056.138.136.301.205.455-.15 1.235-.361 2.492-.537 3.798a.942.942 0 0 0 .522.992c.12.059.251.092.384.096a1.361 1.361 0 0 1-.337-.015c-.905-.09-2.122-.864-2.928-1.346-4.91-2.949-9.594-6.304-14.321-9.531-5.085-3.473-10.153-6.98-15.356-10.275-.35-.881-.701-1.761-1.053-2.64-.445-1.115-2.214-.513-1.772.607.071.174.139.346.206.518-.732-.334-1.556-.696-2.237-1.085.244.677.412 1.489.619 2.029 2.782 7.238 6.029 14.298 9.079 21.421 1.369 3.194 2.75 6.391 3.988 9.638.031.078.073.174.104.252a27.559 27.559 0 0 1-.656 4.038c-.27 1.176 1.561 1.552 1.834.381a.092.092 0 0 1 .001.016.81.81 0 0 1-.053.145.768.768 0 0 1-.627.557c-1.79.966-6.293-.165-8.771-.756a23.177 23.177 0 0 0-1.23-.274c-6.064-1.048-12.186-2.201-18.088-3.945-3.599-1.066-4.753-1.58-5.634-5.23-1.746-7.191-2.859-14.57-4.004-21.874-.662-4.227-1.31-8.486-1.863-12.753-.752-5.822-1.3-11.667-1.255-17.518.019-2.245-.606-12.576 2.837-12.971.064-.004.141.024.211.025-.125.078-.233.129-.359.214-.993.662.036 2.216 1.041 1.551a6.748 6.748 0 0 1 1.443-.743c1.357 1.021 2.742 2.498 3.428 3.037l13.352 10.535 22.018 17.372c-.257-.674-.504-1.352-.761-2.021l.129.106c.927.764 2.165-.638 1.235-1.401l-2.675-2.203a597.601 597.601 0 0 1-4.523-12.508 631.573 631.573 0 0 1-1.518-4.395c.315-.659.628-1.32.952-1.968.537-1.068-1.134-1.917-1.669-.842l-.149.299c-.102-.303-.214-.607-.316-.911-.867 1.632-1.728 3.269-2.628 4.882-.269.48-.665 1.417-1.144 2.35-.915.352-1.856.63-2.815.831a.785.785 0 0 0-.559.441l-.18-.149-.006-.093c-.018-.896.202-1.923.261-2.666.031-.377.077-.75.11-1.127.219-2.599.47-5.204.752-7.816.201-1.895.402-3.799.602-5.711.492-4.509 1.029-9.031 1.959-13.441a6.812 6.812 0 0 1 .777-2.195c.006.665.721 1.31 1.424.816l.946-.665c.194.178.378.366.553.563 3.974 4.641 7.298 9.965 10.711 15.019 2.041 3.026 4.065 6.061 6.025 9.138.092.142.213.305.321.458.093 1.186.097 2.404.074 3.682-.02 1.206 1.844 1.079 1.864-.117a.903.903 0 0 1-.41.835c-.687.343-1.634.082-2.609-.374-1.204-.57-2.417-1.437-3.208-1.928-.384-.881-.78-1.75-1.189-2.614Zm-3.542-9.734a360.3 360.3 0 0 0-5.967-8.552c-.89-1.236-2.841-3.027-3.8-4.582-.085 1.156-.457 2.355-.64 3.507-.523 3.27-.934 6.561-1.329 9.852a486.922 486.922 0 0 0-1.245 11.524c-.087.913-.377 2.469-.532 3.873.012-.019.038-.057.047-.076.701-1.192 1.358-2.412 2.019-3.617a337.727 337.727 0 0 0 2.713-5.083c.364-.698 1.463-.661 1.716.114 3.413 10.43 7.203 20.747 11.159 30.977.356.919-.807 1.553-1.5 1.007a108895.703 108895.703 0 0 0-39.964-31.511c-.651-.513-1.638-1.624-2.45-1.953.024.139.02.282-.013.419-.227 1.194-.571 2.35-.726 3.57-1.109 8.517-.053 17.28 1.066 25.739a485.317 485.317 0 0 0 3.763 23.867c.533 2.924.679 10.178 3.313 11.977 1.71 1.167 4.659 1.48 6.631 1.963 3.133.768 6.295 1.43 9.46 2.045 2.963.573 5.939 1.113 8.927 1.548 1.075.154 2.161.246 3.234.409.326.028.654.024.979-.013-.203-1.295-1.183-3.105-1.547-4.039-1.148-2.886-2.37-5.738-3.591-8.583-2.746-6.412-5.598-12.782-8.216-19.248-.535-1.322-3.726-6.915-1.108-7.584 2.392-.608 7.645 4.018 9.374 5.158 5.504 3.604 10.911 7.354 16.351 11.057 2.672 1.821 5.346 3.64 8.055 5.404.885.578 2.622 1.272 3.798 2.054-.685-1.842-1.458-3.655-2.218-5.466-2.497-5.944-5.092-11.849-7.695-17.748a3564.85 3564.85 0 0 0-13.814-30.932c-.331-.729.626-1.546 1.303-1.139a353.32 353.32 0 0 0 6.045 3.562c1.236.716 2.483 1.421 3.751 2.091-.711-1.263-1.391-2.661-1.66-3.073a550.745 550.745 0 0 0-5.689-8.518Z" fill="#1A1A1A"/><path d="M391.712 215.852c.189-1.305.391-2.563.536-3.798.342-2.783.382-5.438-.748-8.195-2.099-5.119-4.458-10.142-6.767-15.167a2162.952 2162.952 0 0 0-11.784-25.167l-.15-.322c-.515-1.084 1.257-1.682 1.772-.608.408.864.804 1.733 1.213 2.597 3.84 8.102 7.658 16.218 11.394 24.362 2.224 4.845 4.54 9.684 6.482 14.652 1.284 3.28.69 6.862.132 10.321-.093.569-.187 1.139-.265 1.702a.798.798 0 0 1-.923.705.96.96 0 0 1-.684-.344.956.956 0 0 1-.208-.738Zm-36.087-45.037.18.149a1 1 0 0 0 .188 1.01 1.005 1.005 0 0 0 .979.315l.341-.083c3.999 3.294 7.998 6.586 11.998 9.876l.856.704 2.675 2.202c.929.764-.309 2.165-1.236 1.402l-.128-.106-1.159-.961c-5.801-4.77-11.603-9.542-17.407-14.317-4.101-3.377-8.202-6.756-12.301-10.138-2.586-2.136-4.24-4.553-7.17-3.492a6.726 6.726 0 0 0-1.46.746c-.993.665-2.047-.887-1.041-1.55.126-.086.234-.136.358-.214.125-.078.284-.173.424-.252 3.021-1.741 4.751-1.093 7.383 1.087 1.134.94 2.271 1.878 3.409 2.813 2.929 2.418 5.859 4.836 8.792 7.254l4.319 3.555Zm24.514-4.048c.023-1.279.018-2.497-.074-3.683-.137-1.716-.486-3.359-1.46-4.952-1.729-2.823-3.635-5.545-5.513-8.268a797.147 797.147 0 0 0-9.161-12.992l-1.468 1.044-.945.665c-.704.494-1.419-.151-1.425-.815a.854.854 0 0 1 .383-.736l3.164-2.226a.921.921 0 0 1 1.09.061c.078.054.147.12.206.194a818.669 818.669 0 0 1 10.64 15.127c1.794 2.62 3.808 5.249 5.279 8.076 1.335 2.566 1.203 5.553 1.151 8.397-.022 1.196-1.879 1.323-1.867.108Z" fill="#1A1A1A"/><path d="m357.313 172.206-.341.083a1.002 1.002 0 0 1-1.167-1.325.785.785 0 0 1 .559-.441 18.255 18.255 0 0 0 2.815-.831c.697-.303 1.31-.716 1.642-1.397.806-1.646 1.626-3.287 2.443-4.929l.149-.299c.535-1.068 2.206-.237 1.669.842-.324.648-.636 1.309-.952 1.968-.617 1.287-1.233 2.577-1.918 3.825-.871 1.596-3.18 2.083-4.899 2.504Zm-22.867 5.604c.307 1.062.494 2.155.556 3.259.046.729-1.092.803-1.133.072a13.495 13.495 0 0 0-.499-2.96c-.202-.701.874-1.074 1.076-.371Zm-.868-7.003a4.527 4.527 0 0 0 .222 2.248c.245.69-.831 1.058-1.076.37a5.754 5.754 0 0 1-.259-2.853c.109-.723 1.223-.488 1.113.235Zm2.134 7.454-.207-3.302c-.046-.731 1.087-.803 1.133-.071l.208 3.301c.045.729-1.088.803-1.134.072Zm-3.096-12.107c.074-.742.152-1.483.227-2.225.075-.741 1.187-.491 1.113.233l-.227 2.224c-.075.742-1.187.491-1.113-.232Zm4.433 4.101-.185-2.936c-.046-.731 1.09-.803 1.136-.072l.185 2.936c.046.732-1.09.806-1.136.072Z" fill="#1A1A1A"/><path d="M536.251 49.576a65.008 65.008 0 0 0-1.665-7.944 177.58 177.58 0 0 0-2.628 3.039l1.521 8.817a2507.1 2507.1 0 0 1 2.772-3.912Zm-3.815 5.33-1.548-8.995c-.937 1.135-1.833 2.305-2.741 3.462.297 3.118.751 6.207 1.324 9.285.971-1.27 1.967-2.511 2.965-3.752ZM528.439 60c-.011-.026-.036-.03-.044-.059a108.624 108.624 0 0 1-1.364-9.167 160.624 160.624 0 0 0-3.016 4.03l.758 10.216a272.167 272.167 0 0 1 3.666-5.02Zm-7.225 10.242a229.754 229.754 0 0 1 2.456-3.59c.006-.023-.027-.034-.029-.059l-.757-10.187a257.311 257.311 0 0 0-3.23 4.605.448.448 0 0 1 .171.264c.452 2.98.915 5.97 1.389 8.967Zm18.499-25.558-.442-2.374a.595.595 0 0 1 .086-.4c-1.193-.32-2.397-.586-3.597-.857a64.857 64.857 0 0 1 1.529 7.069 436.733 436.733 0 0 1 2.424-3.438Zm-9.819-12.701a84.845 84.845 0 0 0-12.438-1.526 1.059 1.059 0 0 1-1.046-1.05 1.057 1.057 0 0 1 .136-.523c5.245-8.839 14.267-15.895 21.942-22.52a446.734 446.734 0 0 1 16.098-13.25c-8.589-1.817-17.26-3.54-25.974-4.525-1.925-.217-4.492-.75-6.451-.151-8.698 11.501-32.977 45.874-36.917 55.693.165.154.532.244 1.34.475 2.345.68 4.926.747 7.353.856 3.955.178 7.933.148 11.889-.032.762-.035 1.36.923.91 1.577-4.052 5.88-7.116 12.732-9.788 19.673l14.012 3.754c7.699-12.244 16.14-24.167 26.097-34.534l-7.163-3.917Zm-24.985-11.036a154.347 154.347 0 0 0-10.822 17.621c-.619 1.194-2.425.13-1.807-1.06a154.346 154.346 0 0 1 10.822-17.622c.778-1.085 2.586-.039 1.807 1.06Zm2.811-3.31-.254-.068c-1.299-.348-.758-2.366.541-2.018l.253.068c1.299.348.757 2.36-.539 2.012l-.001.006Z" fill="#FFE761"/><path d="M527.781 26.31c.056.694.303 1.722.277 2.614 1.1-1.142 2.252-2.24 3.384-3.356a103.69 103.69 0 0 1-.115-10.34 112.26 112.26 0 0 0-4.234 3.973c.052.083.127.148.137.267l.551 6.843Zm-9.077 36.062a288.414 288.414 0 0 0-2.738 4.11.47.47 0 0 1 .189.283l.884 5.298 2.484.665c.213-.325.422-.648.636-.97l-1.455-9.386Zm23.815-21.692.92-1.316-4.476-2.439c-.718.74-1.441 1.475-2.143 2.234a83.61 83.61 0 0 1 5.699 1.521Zm-15.741-11.606c-.065-.406-.18-1.67-.207-1.994l-.183-2.28-.367-4.542a67.653 67.653 0 0 0-3.391 3.735.529.529 0 0 1 .366.519c-.018 1.46.143 2.919.48 4.34 1.056.12 2.108.306 3.162.465.029-.054.032-.12.068-.166l.072-.077Zm-35.66 19.504a29.637 29.637 0 0 0-1.053 2.225c.631.031 1.276.043 1.943.004l-.89-2.229Zm28.168-20.065c.96.063 1.919.131 2.881.228a18.897 18.897 0 0 1-.413-3.642 44.991 44.991 0 0 0-2.468 3.414Zm-34.595 17.659c-.366 2.483.965 3.77 3.078 4.311.401-1.02.885-2.005 1.45-2.945-1.821-.273-3.409-.704-4.528-1.366Zm15.599 8.282.069.051c.156-.323.298-.652.456-.977.448-.923.911-1.847 1.38-2.785l-.449-.88c-.288.898-.79 2.481-1.456 4.59Zm46.686-40.22c-5.884 4.969-11.578 10.153-16.922 15.646l.097.027a11887.17 11887.17 0 0 0 19.976-18.291c-.997.823-1.994 1.643-2.984 2.486a.472.472 0 0 1-.167.132ZM496.657 50.25c-.355-.772-.707-1.545-1.098-2.3a56.81 56.81 0 0 1-3.374-.11l1.146 2.87a40.02 40.02 0 0 0 3.326-.46Zm44.47-33.711a.442.442 0 0 1 .01-.237.444.444 0 0 1 .128-.198c-.28-2.925-.522-5.855-.699-8.789-1.132.97-2.295 1.955-3.479 2.952-.026 3.21.078 6.415.309 9.616a278.506 278.506 0 0 1 3.731-3.344Zm-37.195 31.099c-.551.038-1.158.075-1.822.11l.801 1.606c.315-.587.68-1.144 1.021-1.716Zm32.374-26.775c-.05-.082-.125-.147-.136-.263a122.03 122.03 0 0 1-.336-9.27c-1.07.908-2.141 1.828-3.214 2.762-.161 3.422-.126 6.837.05 10.26 1.207-1.17 2.404-2.346 3.636-3.489ZM501.398 49.18l-.689-1.354a102.63 102.63 0 0 1-3.746.12c.336.687.663 1.373.979 2.055a53.6 53.6 0 0 0 3.456-.822Zm13.662 18.708c-.666 1.037-1.34 2.067-1.998 3.11l2.634.705-.636-3.815Z" fill="#FFE761"/><path d="m539.713 44.684.008.038c.045.492.136.978.271 1.453.352-.378.719-.745 1.076-1.119-.019-.115-.034-.215-.042-.244l-.157-.852-.135-.723c-.064-.316-.123-.654-.182-.98-.401-.108-.792-.243-1.195-.348a.595.595 0 0 0-.086.401c.144.792.292 1.583.442 2.374ZM496.948 66.68c2.669-6.93 5.736-13.793 9.788-19.674.45-.653-.148-1.61-.91-1.576-3.956.18-7.934.21-11.889.032-2.427-.11-5.008-.177-7.353-.856-.797-.228-1.177-.315-1.34-.475-.209-.2-.058-.509.105-1.385.584-3.094 3.324-6.56 4.905-9.208 2.47-4.133 5.069-8.202 7.703-12.213 5.594-8.533 11.371-16.97 17.405-25.185 1.61-2.194 3.381-5.616 5.623-7.228a3.9 3.9 0 0 1 1.173-.475c1.953-.6 4.526-.066 6.451.151 8.72.986 17.391 2.71 25.974 4.525a433.608 433.608 0 0 0-16.098 13.25c-7.671 6.609-16.697 13.681-21.942 22.52a1.057 1.057 0 0 0 .389 1.43c.158.092.338.142.522.143a84.86 84.86 0 0 1 12.437 1.526 72.117 72.117 0 0 1 8.704 2.305c-.521.527-1.024 1.067-1.537 1.599-9.952 10.382-18.401 22.303-26.097 34.533l2.102.563c.658-1.042 1.332-2.072 1.998-3.109l-.13-.788a.652.652 0 0 1 .306-.664.646.646 0 0 1 .73.046 287.858 287.858 0 0 1 2.738-4.11l-.118-.775a.637.637 0 0 1 .316-.673.644.644 0 0 1 .74.075 246.524 246.524 0 0 1 3.23-4.605c-.038-.548-.079-1.096-.121-1.645-.061-.82 1.212-.82 1.272-.01-.005.02-.01.04.006.068.991-1.358 1.996-2.7 3.016-4.029-.052-.465-.122-.928-.167-1.395-.08-.816 1.195-.815 1.272-.008.907-1.158 1.803-2.328 2.741-3.463l-.185-1.048c-.138-.801 1.088-1.14 1.227-.334.007.053.017.103.027.157a293.143 293.143 0 0 1 2.628-3.04c-.079-.287-.144-.579-.217-.862-.009-.035.014-.053.022-.083-1.029-.452-.492-2.2.738-1.93.565.122 1.123.271 1.702.406.702-.76 1.425-1.495 2.143-2.234.768-.792 1.505-1.614 2.288-2.375.601-.592.259-1.49-.465-1.753a71.58 71.58 0 0 0-10.631-2.881l-.098-.026c-.464.473-.967.936-1.423 1.41-.811.853-2.044-.176-1.711-1.097a.295.295 0 0 1-.115-.049l-.108-.1a.604.604 0 0 1-.064-.731c-1.053-.16-2.106-.347-3.162-.465.02.083.023.17.046.254.199.797-1.029 1.131-1.226.338-.06-.234-.079-.473-.128-.704a83.776 83.776 0 0 0-2.882-.228 44.75 44.75 0 0 1 2.469-3.414c-.003-.192-.032-.382-.031-.576a.617.617 0 0 1 .907-.53 67.669 67.669 0 0 1 3.39-3.734c-.023-.26-.042-.523-.062-.782-.058-.7.823-.765 1.134-.276a114.592 114.592 0 0 1 4.235-3.974c.016-.45.004-.895.026-1.346.042-.816 1.315-.828 1.272-.008-.001.07 0 .146-.005.22a278.969 278.969 0 0 1 3.214-2.764c-.001-.454-.021-.901-.016-1.357.008-.82 1.28-.828 1.272-.009-.002.098.004.198.003.3 1.164-.997 2.341-1.978 3.48-2.951-.014-.225-.043-.451-.054-.678-.042-.714.872-.77 1.153-.247 1.264-1.08 2.549-2.143 3.824-3.211-.003-.3-.037-.587-.044-.882-.013-.777 1.092-.798 1.224-.11.9-.749 1.784-1.507 2.693-2.246l-.534-.104c-1.322-.25-.77-2.265.541-2.018.711.134 1.417.287 2.128.42a1312.17 1312.17 0 0 1 3.801-3.035c.803-.633 1.594-1.288 2.402-1.917a.807.807 0 0 0 .238-1.1.504.504 0 0 0-.018-.077.887.887 0 0 0-.683-.575c-8.942-1.906-17.96-3.692-27.03-4.853-1.679-.21-3.991-.713-6.133-.747-1.454-.016-2.835.176-3.888.84-1.949 1.232-3.514 4.117-4.87 5.91-6.806 9.066-13.213 18.46-19.418 27.959-3.024 4.597-5.982 9.236-8.731 14-1.402 2.432-3.897 5.77-4.185 8.67-.125 1.249.543 2.169 1.702 2.847 1.16.678 2.696 1.09 4.528 1.365.381-.65.735-1.225.96-1.642.64-1.185 2.442-.126 1.808 1.058-.035.062-.067.128-.102.19.012.022.039.01.045.045l.261.653c1.11.07 2.242.105 3.374.11-.012-.025-.023-.052-.037-.076-.376-.728.724-1.366 1.103-.637.12.232.219.474.338.71 1.31-.017 2.58-.063 3.746-.12l-.161-.316c-.372-.73.728-1.367 1.1-.637l.449.88 1.822-.11c-.342.572-.706 1.128-1.019 1.716l.59 1.144c.372.73-.728 1.368-1.1.638l-.194-.39c-.468.93-.933 1.863-1.38 2.785-.159.325-.301.655-.456.977.606.57.403 1.841-.654 1.818l-.186-.008a230.263 230.263 0 0 0-4.369 9.883l1.778.476Z" fill="#1A1A1A"/><path d="M546.008 13.733c-.036-.446-.03-.905-.065-1.341-1.157.974-2.314 1.946-3.475 2.934.055.589.082 1.178.14 1.765.087.79-1.002.77-1.242.175-.084-.2-.165-.4-.246-.598-.02-.05.021-.08.005-.13a249.98 249.98 0 0 0-3.724 3.34c.017.237.022.475.041.713.052.698-.829.764-1.139.271-1.232 1.143-2.415 2.323-3.624 3.493.029.572.025 1.145.065 1.72.055.818-1.218.82-1.272.009-.012-.17-.01-.344-.021-.514-1.133 1.116-2.284 2.214-3.385 3.356.025.438-.099.871-.35 1.23a.6.6 0 0 1-.783.044c-.322.924.9 1.95 1.71 1.098.456-.476.96-.938 1.424-1.411 5.355-5.49 11.038-10.678 16.922-15.646a.656.656 0 0 1-.981-.508Zm-9.191 25.437c-.563-.13-1.134-.283-1.702-.405-1.23-.27-1.767 1.477-.738 1.93-.107-.717 1-1.002 1.217-.251.059.204.096.414.155.618 1.2.27 2.402.545 3.597.856.401.108.794.237 1.195.347.239.064.473.15.714.221.594.16 1.175.354 1.758.543-.663.668-1.307 1.353-1.956 2.036-.357.374-.724.741-1.076 1.119-.864.928-1.71 1.866-2.547 2.816.026.19.072.375.096.564.098.683-.75.994-1.078.568-.991 1.145-1.997 2.28-2.959 3.452l.225 1.39c.14.803-1.086 1.143-1.226.338-.025-.132-.045-.266-.07-.398a168.753 168.753 0 0 0-2.965 3.752c.059.315.101.625.166.941.15.769-.96 1.087-1.185.397a272.507 272.507 0 0 0-3.666 5.019l.114 1.548c.057.792-1.111.802-1.243.067a290.525 290.525 0 0 0-2.456 3.59l.27 1.749c.125.804-1.101 1.145-1.226.338a39.94 39.94 0 0 1-.086-.558c-.215.322-.424.645-.637.97l2.113.566c7.12-10.75 14.929-21.064 24.042-30.032.604-.59.259-1.49-.462-1.752-.886-.318-1.796-.559-2.697-.83a80.042 80.042 0 0 0-5.687-1.509Zm-37.112 17.153c1.055.022 1.261-1.249.654-1.818l-.069-.051a.98.98 0 0 0-.602-.221l-.016-.005.039.098c.277.773-.953 1.103-1.228.337-.052-.152-.121-.296-.18-.446-1.289-.005-2.632-.03-3.975-.148a.665.665 0 0 1-1.016-.123 11.157 11.157 0 0 1-3.086-.803c-1.111-.513-.754-.91-.333-1.98.051-.124.116-.24.167-.365.319-.757.672-1.495 1.053-2.224l-.422-1.057c-.295-.736.842-1.047 1.183-.38.035-.062.067-.127.102-.19.639-1.182-1.162-2.241-1.808-1.058-.225.418-.565.996-.96 1.643a19.687 19.687 0 0 0-1.449 2.946c-.518 1.387-.706 2.744.092 3.636.957 1.066 2.797 1.404 4.116 1.629 2.488.427 5.023.51 7.542.566l.196.014Z" fill="#1A1A1A"/><path d="M541.127 16.539c.009.047-.021.08-.005.13.082.198.162.399.247.598.246.597 1.328.615 1.241-.176-.058-.586-.085-1.176-.139-1.764-.27-2.895-.521-5.795-.692-8.7-.008-.106-.077-.16-.119-.238-.281-.523-1.195-.466-1.153.247.01.227.04.453.054.678.179 2.934.419 5.863.698 8.788a.446.446 0 0 0-.132.437Zm-4.821 4.324c.31.493 1.191.427 1.139-.271-.02-.238-.025-.476-.042-.713a123.37 123.37 0 0 1-.309-9.616c0-.102-.006-.202-.003-.3.007-.82-1.276-.814-1.272.009-.005.453.015.9.015 1.357.001 3.096.1 6.184.336 9.27.011.117.085.197.136.264Zm-4.844 5.221c.055.812 1.328.81 1.273-.008-.041-.576-.036-1.148-.065-1.72a103.9 103.9 0 0 1-.05-10.261c.018-.07.004-.149.005-.22.043-.819-1.23-.807-1.272.009-.022.448-.01.893-.026 1.346-.127 3.45-.1 6.895.115 10.34.012.168.01.341.02.514Zm-3.756 4.073a1.95 1.95 0 0 0 .351-1.23c.026-.89-.221-1.92-.277-2.614l-.556-6.844c-.01-.119-.085-.184-.138-.267-.31-.49-1.191-.423-1.134.276.02.26.04.522.062.782l.367 4.54.184 2.281c.026.324.142 1.589.206 1.994l-.071.077c-.042.045-.031.114-.069.167a.602.602 0 0 0 .064.73l.108.101c.028.029.081.022.115.05a.597.597 0 0 0 .788-.043Zm-5.076-6.165a.616.616 0 0 0-.907.531c-.001.194.029.384.031.576a18.84 18.84 0 0 0 .422 3.644c.048.231.068.47.128.704.197.793 1.424.46 1.226-.338-.023-.084-.026-.171-.046-.254a17.869 17.869 0 0 1-.48-4.341.529.529 0 0 0-.374-.522Zm13.676 25.895c.016.118.091.162.146.233.331.417 1.165.112 1.079-.568-.024-.189-.07-.374-.097-.564-.044-.293-.105-.578-.153-.868a65.095 65.095 0 0 0-1.529-7.07c-.059-.203-.096-.413-.155-.617-.217-.752-1.321-.465-1.217.25l-.022.084c.082.285.144.576.217.862a65.01 65.01 0 0 1 1.665 7.945c.025.108.051.21.066.313Zm-3.8 5.417c.14.805 1.369.465 1.226-.338l-.225-1.39-.016-.085-1.522-8.817c-.009-.054-.02-.104-.026-.157-.14-.805-1.369-.468-1.228.334l.184 1.063 1.549 8.995c.011.122.034.263.058.395ZM528.439 60c.224.691 1.334.373 1.185-.396-.065-.316-.107-.626-.166-.94-.574-3.079-1.036-6.17-1.325-9.285-.082-.808-1.349-.807-1.272.009.046.466.116.927.167 1.395.332 3.076.772 6.13 1.365 9.167.021.023.052.028.046.05Zm-4.784 6.639c.129.733 1.3.724 1.243-.068l-.114-1.548-.758-10.217c.006-.022.012-.042-.005-.067-.061-.811-1.334-.811-1.272.009l.12 1.645.757 10.187c.002.025.024.033.029.059Zm-3.409 5.677c.124.807 1.351.466 1.226-.338l-.258-1.736c-.466-2.991-.929-5.98-1.391-8.968a.455.455 0 0 0-.172-.264.64.64 0 0 0-.74-.075.645.645 0 0 0-.316.673l.118.776 1.448 9.368c.026.192.054.376.085.564Zm-3.207-.253-.87-5.294a.477.477 0 0 0-.189-.284.648.648 0 0 0-1.036.619l.13.787.636 3.816 1.329.356Zm-26.343-24.542.422 1.057.896 2.23 1.223 3.053c.017.046.063.052.086.091a.66.66 0 0 0 1.015.123.456.456 0 0 0 .155-.254.457.457 0 0 0-.031-.295c-.374-.94-.749-1.877-1.125-2.815l-1.146-2.87-.262-.652c.006-.02-.032-.024-.044-.045-.347-.67-1.485-.36-1.189.377Zm7.623 6.704c.053.148.122.292.18.445.275.767 1.505.436 1.228-.337l-.039-.097a56.917 56.917 0 0 0-1.73-4.228c-.316-.682-.643-1.367-.979-2.055-.119-.235-.218-.477-.338-.709-.379-.729-1.469-.095-1.103.637.014.025.025.051.037.075.394.757.743 1.529 1.098 2.302a74.708 74.708 0 0 1 1.646 3.967Zm3.427-4.361.449.879.194.39c.372.73 1.469.094 1.1-.638l-.59-1.144-.816-1.602-.449-.879c-.372-.73-1.468-.094-1.1.638l.161.315.689 1.352.362.689Zm1.361-29.976a154.49 154.49 0 0 0-10.822 17.621c-.617 1.19 1.189 2.254 1.807 1.06a154.49 154.49 0 0 1 10.822-17.62c.774-1.102-1.034-2.148-1.807-1.061Zm5.153-4.269-.253-.068c-1.299-.348-1.84 1.67-.541 2.018l.254.068c1.297.342 1.839-1.67.54-2.018Z" fill="#1A1A1A"/><path d="M505.988 91.275a796.782 796.782 0 0 0 2.889-3.86 8.37 8.37 0 0 1-.09-.364 327.94 327.94 0 0 0-.391-2.196l-.845-4.875c-1.008 1.677-2.014 3.344-3.01 5.034l-.174.294c.036.054.095.067.116.135a78.245 78.245 0 0 1 1.505 5.832Zm2.732-11.915 1.176 6.685c.848-1.143 1.699-2.294 2.553-3.453-.16-.685-.379-1.395-.426-1.653-.152-.782-.298-1.574-.454-2.341l-.761-3.974c-.886 1.435-1.772 2.868-2.647 4.303a.498.498 0 0 1 .499.247.478.478 0 0 1 .06.187Zm-24.25 31.268c-.517 2.786-.721 4.799-.469 5.628.16.518.774.3 1.74-.471-.026-.046-.078-.078-.096-.131a23.89 23.89 0 0 1-1.175-5.026Zm9.956-4.443c-.172-.807-.372-1.611-.528-2.423-.735 1.359-1.479 2.71-2.201 4.076.105.435.188.872.293 1.307.767-.915 1.589-1.917 2.436-2.96Zm6.478-8.224c-.4-1.607-.763-3.224-1.09-4.851-.686 1.2-1.356 2.409-2.035 3.613l1.034 3.946 2.091-2.708Zm4.065-5.337a74.573 74.573 0 0 0-1.453-5.868 1094.21 1094.21 0 0 0-2.756 4.71 106.15 106.15 0 0 0 1.117 5.217 519.231 519.231 0 0 0 3.092-4.059Zm-7.15 9.305-.94-3.606a497.281 497.281 0 0 0-2.056 3.724c.179.962.43 1.908.627 2.857a260.29 260.29 0 0 0 2.369-2.975Zm19.797-26.377c.254-.345.501-.688.752-1.033.386-.593.764-1.19 1.153-1.782l-2.484-.666c.197 1.153.39 2.313.579 3.48Zm-23.197-2.034c-2.527 8.405-5.201 17.628-7.227 25.4a58.635 58.635 0 0 0-.57 7.546 35.464 35.464 0 0 0 .367 5.977c5.068-9.994 10.579-19.81 16.312-29.445a587.185 587.185 0 0 1 7.656-12.55l-14.012-3.755a311.86 311.86 0 0 0-2.526 6.827Zm19.029 7.722a2710.28 2710.28 0 0 0 3.127-4.267 1589.8 1589.8 0 0 0-.879-5.27l-2.634-.706c-.427.678-.848 1.36-1.275 2.049l1.378 7.165c.06.276.166.63.283 1.03Z" fill="#FFE761"/><path d="M489.501 107.851a1.123 1.123 0 0 1 1.018-.977c.321-.275.887-.279 1.019.253.057.236.1.475.159.711.722-1.366 1.466-2.717 2.201-4.076-.124-.652-.305-1.292-.423-1.945-.147-.801 1.08-1.142 1.225-.335.036.189.088.373.123.565a495.286 495.286 0 0 1 2.056-3.724l-.423-1.631c-.205-.796 1.02-1.131 1.225-.338l.098.372c.678-1.204 1.349-2.414 2.034-3.613-.12-.6-.277-1.195-.376-1.795-.15-.802 1.076-1.14 1.225-.335.032.161.073.319.103.485a412.33 412.33 0 0 1 2.756-4.71c-.095-.325-.171-.644-.272-.97-.22-.716.752-1.011 1.113-.473.059-.097.115-.196.174-.293.993-1.676 1.999-3.349 3.01-5.035l-.05-.282a.649.649 0 0 1 .389-.707.65.65 0 0 1 .283-.05c.869-1.438 1.755-2.87 2.647-4.305l-.289-1.496c-.156-.8 1.07-1.141 1.225-.335.015.079.029.157.047.237.424-.681.846-1.363 1.275-2.049l-2.102-.563a649.395 649.395 0 0 0-7.656 12.552c-5.733 9.633-11.238 19.439-16.311 29.444a35.36 35.36 0 0 1-.368-5.977 58.46 58.46 0 0 1 .571-7.547c.882-6.47 2.723-12.839 4.92-18.942.756-2.107 1.524-4.273 2.306-6.457a323.715 323.715 0 0 1 2.526-6.828l-1.798-.481a271.502 271.502 0 0 0-5.614 14.81c-2.885 8.336-6.412 19.905-5.066 29.62a23.89 23.89 0 0 0 1.175 5.026c.018.053.07.085.096.131.373.661 1.407.938 1.813.124.465-.93.949-1.837 1.426-2.779.111-1.819.308-3.604.51-5.282Z" fill="#1A1A1A"/><path d="M519.523 72.728c-.388.59-.766 1.187-1.153 1.783l-.734 1.135c.135.797.268 1.595.401 2.393.131.803-1.092 1.142-1.229.337-.064-.384-.128-.769-.189-1.153a376.845 376.845 0 0 0-2.972 4.737c.27 1.02.462 2.12.003 2.728a.642.642 0 0 1-.756.276.64.64 0 0 1-.245-.15l-.12-.133a.64.64 0 0 1 .004-.896l.049-.037.019-.073a691.804 691.804 0 0 0-2.354 3.869c.28 1.03.573 2.244.149 2.958a.658.658 0 0 1-.871.227l-.138-.064a.628.628 0 0 1-.293-.712l.03-.111c.027-.103.116-.133.176-.201a1.74 1.74 0 0 0-.02-.504c-.528.856-1.041 1.722-1.55 2.572-.41.694-.812 1.392-1.222 2.086.062.316.129.632.194.948a.635.635 0 0 1-1.076.557c-.947 1.617-1.896 3.23-2.83 4.856.135.499.25 1.005.395 1.504.227.79-1 1.121-1.229.337l-.064-.253a438.353 438.353 0 0 0-1.926 3.409l.647 2.492c.209.794-1.019 1.128-1.226.338l-.323-1.237c-.779 1.401-1.537 2.815-2.299 4.223.132.556.22 1.117.361 1.672.203.795-1.025 1.129-1.227.334-.023-.096-.038-.195-.063-.292-.722 1.346-1.444 2.691-2.149 4.04.083.405.189.801.275 1.206a.624.624 0 0 1-1.131.474c-.491.932-.972 1.865-1.443 2.798-.608-3.15-.505-6.556-.198-9.786-.302-1.315-.562-2.642-.886-3.951a.553.553 0 0 1 .209-.59 1.121 1.121 0 0 0-1.018.976c-.202 1.679-.399 3.464-.518 5.281-.258 3.815-.167 7.791 1.091 11.247.28.772 1.473 1.124 1.906.254 5.237-10.514 10.998-20.795 16.979-30.897 4.049-6.838 8.23-13.724 12.679-20.44l-2.115-.567Z" fill="#1A1A1A"/><path d="m517.039 72.063-1.343-.36c.294 1.756.587 3.512.879 5.27.014.08.028.165.044.247.062.384.126.769.19 1.154.137.804 1.369.468 1.229-.337-.14-.806-.266-1.595-.402-2.394l-.017-.103c-.191-1.158-.385-2.318-.58-3.477Zm-3.874 8.148-1.365-7.17c-.017-.08-.032-.159-.047-.237-.154-.807-1.37-.463-1.225.334l.28 1.486.763 3.965c.153.78.302 1.56.454 2.342.048.257.267.967.427 1.653.089.35.137.71.143 1.072l-.02.072-.049.038a.648.648 0 0 0-.004.895l.12.133a.648.648 0 0 0 1.002-.125c.461-.609.269-1.72-.004-2.729-.065-.248-.132-.49-.199-.717-.11-.382-.216-.736-.276-1.012Zm-3.269 5.834-1.176-6.684a.475.475 0 0 0-.19-.327.483.483 0 0 0-.365-.097.651.651 0 0 0-.672.758l.049.282.857 4.866c.128.737.26 1.471.391 2.197.013.072.055.23.09.364.121.463.309 1.147.402 1.712.032.166.038.336.02.505-.06.067-.143.099-.176.2l-.03.112a.634.634 0 0 0 .293.712l.139.064a.654.654 0 0 0 .87-.227c.425-.717.131-1.928-.148-2.959-.12-.444-.235-.863-.281-1.183l-.073-.295Zm-5.422-.604c-.02-.068-.08-.081-.116-.136-.36-.539-1.333-.243-1.112.473.101.326.176.645.272.97a75.593 75.593 0 0 1 1.454 5.868c.169.816.361 1.63.504 2.453.018.113.094.154.15.223a.63.63 0 0 0 1.023-.163.632.632 0 0 0 .052-.395c-.053-.313-.129-.632-.194-.948a76.545 76.545 0 0 0-.517-2.529c-.436-1.942-.923-3.892-1.516-5.816Zm-3.709 6.027c-.031-.164-.073-.319-.103-.485-.149-.805-1.369-.465-1.225.335.11.603.256 1.195.376 1.795.33 1.626.693 3.243 1.091 4.85.309 1.279.631 2.527.992 3.78l.063.253c.229.784 1.456.453 1.229-.337-.144-.499-.26-1.005-.395-1.504-.315-1.154-.633-2.309-.91-3.47-.415-1.73-.787-3.47-1.118-5.217Zm-2.986 5.258-.098-.372c-.205-.793-1.43-.459-1.225.337l.423 1.631.94 3.607 1.249 4.816.322 1.237c.207.79 1.435.456 1.226-.338l-.647-2.492-1.162-4.493-1.028-3.933Zm-2.956 5.321c-.035-.192-.087-.376-.123-.565-.145-.807-1.369-.465-1.225.335.123.654.296 1.292.423 1.945.156.812.356 1.616.528 2.423.454 2.172.872 4.348 1.413 6.498.025.096.041.196.063.291.202.795 1.43.461 1.227-.334-.149-.557-.229-1.116-.361-1.671-.49-2.008-.907-4.031-1.321-6.054-.194-.96-.445-1.906-.624-2.868Zm-3.126 5.791c-.059-.236-.102-.475-.159-.711-.132-.532-.698-.528-1.019-.253a.555.555 0 0 0-.209.59c.324 1.309.584 2.636.886 3.951.525 2.279 1.074 4.554 1.535 6.846.015.07.07.087.098.14a.613.613 0 0 0 .339.254.616.616 0 0 0 .423-.021.624.624 0 0 0 .368-.707c-.08-.404-.186-.8-.274-1.206-.518-2.529-1.1-5.06-1.701-7.578-.099-.433-.182-.87-.287-1.305Z" fill="#1A1A1A"/><path d="M176.823 176.868a53.788 53.788 0 0 1 6.416-1.977 151.72 151.72 0 0 1-1.147 3.118l-6.989 2.431c.605-1.253 1.187-2.461 1.72-3.572Zm-2.328 4.894 7.128-2.482c-.446 1.133-.933 2.25-1.408 3.37a86.693 86.693 0 0 1-7.248 2.76c.53-1.21 1.03-2.428 1.528-3.648Zm5.461-11.361c.144.15.302.283.447.429-.253.081-.523.172-.783.261l.336-.69Zm-.979 2.003 1.895-.631a.493.493 0 0 0 .255-.223c.709.735 1.384 1.5 2.06 2.26a53.723 53.723 0 0 0-5.727 1.724c.557-1.134 1.071-2.2 1.517-3.13Zm13.122 2.018a70.031 70.031 0 0 1 6.084 8.389.881.881 0 0 0 .744.443.871.871 0 0 0 .76-.414c4.295-7.335 5.787-16.689 7.507-24.895a368.63 368.63 0 0 0 3.141-16.954c4.755 5.487 9.474 11.071 13.675 16.982.928 1.306 2.342 2.95 2.693 4.607-4.839 10.899-19.987 42.231-25.514 49.014-.177-.058-.389-.288-.88-.779-1.431-1.425-2.513-3.266-3.564-4.978a108.791 108.791 0 0 1-4.738-8.615c-.28-.566-1.213-.615-1.505-.028-2.632 5.288-6.363 10.248-10.315 14.961l-8.328-8.635c5.777-10.474 11.023-21.356 14.537-32.712l5.703 3.614Zm17.99 13.659a127.605 127.605 0 0 1-8.416 14.887c-.616.925.877 1.807 1.491.883a127.758 127.758 0 0 0 8.417-14.887c.473-.998-1.008-1.887-1.492-.883Zm1.27-3.359.15.156c.772.801 2.016-.399 1.244-1.199l-.151-.157c-.772-.8-2.01.398-1.24 1.197l-.003.003Zm-9.104-43.408c.741.864 1.469 1.739 2.204 2.608l-2.813 1.092c.206-1.233.409-2.466.609-3.7Z" fill="#FFE761"/><path d="M197.049 173.68c-.524.237-1.367.469-2.001.846.385-1.254.719-2.527 1.072-3.793a85.47 85.47 0 0 0 7.529-4.058 93.818 93.818 0 0 1-1.18 4.656c-.081-.005-.158-.034-.248.007l-5.172 2.342Zm-16.299-4.91.584-1.193 3.557 2.262c-.247.816-.49 1.633-.758 2.446a68.84 68.84 0 0 0-3.383-3.515Zm14.702 6.742c.319-.115 1.28-.539 1.525-.649l1.724-.78 3.432-1.553a55.502 55.502 0 0 1-1.344 3.948.437.437 0 0 0-.522-.057 14.755 14.755 0 0 1-3.333 1.392c-.509-.717-1.065-1.404-1.602-2.102.027-.043.073-.071.093-.116l.027-.083Zm6.044-29.557a.518.518 0 0 0 .475.049l3.204-1.243c.476.565.957 1.122 1.429 1.688a52.482 52.482 0 0 0-5.546 2.183c.151-.888.285-1.777.438-2.677Zm-2.638 34.753a70.734 70.734 0 0 0-1.319-1.993 15.561 15.561 0 0 0 2.8-1.16 37.223 37.223 0 0 1-1.481 3.153Zm11.555-42.269a.735.735 0 0 0-.689-.264c.33-.666.662-1.185.896-1.196.644-.054 17.604 21.86 17.604 21.86.024.076-.149.558-.484 1.368-.88-1.541-2.168-3.011-2.997-4.138-4.466-6.11-9.368-11.922-14.33-17.63Zm-12.312 16.516c-1.239 6.247-2.71 12.443-4.545 18.509l-.058-.06c.895-3.74 3.155-13.178 5.235-21.778-.196 1.051-.391 2.101-.604 3.155a.399.399 0 0 0-.028.174Zm4.23-16.22a.737.737 0 0 0-.393-.229c.531-2.116.883-3.47.948-3.596.36-.678 5.403 6.366 5.651 6.403-.221 1.318-.446 2.64-.675 3.966-1.833-2.187-3.657-4.387-5.531-6.544Zm-3.556 21.375a.365.365 0 0 0 .26-.274 206.292 206.292 0 0 0 6.639-3.014 482.213 482.213 0 0 0-.743 3.7 99.345 99.345 0 0 1-7.081 3.626c.321-1.346.63-2.692.925-4.038Zm.336-1.461c.26-1.226.49-2.462.732-3.69a156.569 156.569 0 0 0 6.847-3.361c-.263 1.351-.517 2.706-.793 4.053-.072.001-.139-.028-.219.01a206.168 206.168 0 0 1-6.567 2.988Zm-1.534 6.681c.079.003.156.031.245-.007a100.648 100.648 0 0 0 6.842-3.47 269.649 269.649 0 0 1-.712 3.432 86.096 86.096 0 0 1-7.444 4.073c.364-1.342.736-2.679 1.069-4.028Zm2.517-11.657c.259-1.351.53-2.699.767-4.055a.477.477 0 0 0 .477.03 50.833 50.833 0 0 1 5.981-2.34l.166.195c-.175.95-.369 1.894-.546 2.847-.031.01-.059-.009-.092.009-2.215 1.175-4.481 2.249-6.753 3.314Z" fill="#FFE761"/><path d="M201.496 145.955c.055-.315.104-.631.155-.946l2.813-1.091.711.843-3.204 1.243a.52.52 0 0 1-.475-.049Zm-.632 3.666c.06-.33.13-.656.188-.984a52.498 52.498 0 0 1 5.547-2.183c.238.288.486.569.724.857a50.68 50.68 0 0 0-5.982 2.341.474.474 0 0 1-.477-.031Zm-21.887 22.783-.031.009a6.579 6.579 0 0 1-1.16.386c.133-.406.252-.819.379-1.227.091-.032.17-.061.193-.067l.68-.228.577-.192c.254-.079.523-.172.783-.261.238.248.492.477.729.726a.493.493 0 0 1-.255.223c-.631.213-1.263.423-1.895.631Z" fill="#1A1A1A"/><path d="M180.187 212.155c3.945-4.707 7.682-9.673 10.315-14.961.292-.587 1.225-.538 1.505.028a108.791 108.791 0 0 0 4.738 8.615c1.051 1.712 2.133 3.553 3.564 4.978.484.485.699.725.88.779.229.071.391-.162.96-.631 2.005-1.662 3.416-5.032 4.698-7.236 2.002-3.442 3.905-6.952 5.753-10.465 3.934-7.464 7.725-15.022 11.253-22.678.943-2.044 2.709-4.695 2.978-6.964a3.225 3.225 0 0 0-.126-1.038c-.348-1.654-1.765-3.301-2.693-4.608-4.205-5.914-8.924-11.498-13.675-16.981a358.155 358.155 0 0 1-3.141 16.954c-1.71 8.196-3.213 17.56-7.508 24.894a.866.866 0 0 1-.759.414.873.873 0 0 1-.744-.443 70.1 70.1 0 0 0-6.084-8.388 59.57 59.57 0 0 0-5.153-5.374c-.173.587-.362 1.168-.542 1.752-3.527 11.358-8.769 22.245-14.536 32.711l-1.249-1.295c.49-.894.965-1.793 1.449-2.691l.622-.222a.532.532 0 0 0 .275-.792.535.535 0 0 0-.242-.204c.64-1.204 1.259-2.415 1.877-3.627l.608-.225a.542.542 0 0 0 .26-.192.547.547 0 0 0 .101-.307.534.534 0 0 0-.351-.505 201.2 201.2 0 0 0 2.038-4.181c.412-.192.825-.382 1.239-.572.618-.284.108-1.205-.503-.924-.012.012-.024.024-.051.023a172.978 172.978 0 0 0 1.708-3.795c.357-.149.721-.284 1.076-.438.623-.269.111-1.191-.503-.924.474-1.12.962-2.237 1.408-3.37l.832-.285c.635-.222.389-1.244-.25-1.023-.041.017-.081.029-.124.044.39-1.04.773-2.079 1.147-3.119.239-.058.477-.128.711-.188.028-.008.032-.031.051-.049.739.563 1.788-.525 1.101-1.307-.315-.36-.646-.704-.975-1.069.268-.812.51-1.63.758-2.445.266-.873.565-1.735.802-2.607.187-.672.974-.784 1.454-.365a59.17 59.17 0 0 1 6.343 6.538l.058.06c-.157.526-.29 1.075-.451 1.596-.292.928.946 1.407 1.479.798a.247.247 0 0 0 .081.064l.116.037a.503.503 0 0 0 .32-.028.502.502 0 0 0 .235-.218c.537.698 1.094 1.385 1.602 2.101-.068.019-.132.052-.202.069-.656.176-.406 1.198.247 1.022.193-.05.373-.131.56-.189.456.658.889 1.324 1.319 1.994a37.23 37.23 0 0 0 1.482-3.153c.139-.075.289-.13.429-.208a.512.512 0 0 0 .021-.869 56.73 56.73 0 0 0 1.344-3.949c.197-.087.394-.178.59-.267.529-.239.224-.903-.255-.932a95.174 95.174 0 0 0 1.18-4.655c.319-.192.646-.361.964-.558.573-.358.072-1.283-.503-.924-.052.03-.106.059-.157.092.248-1.152.485-2.296.712-3.432.329-.181.661-.346.988-.532.59-.334.087-1.258-.503-.924-.07.041-.145.077-.218.117.255-1.24.494-2.485.742-3.699.169-.08.344-.149.512-.232.533-.255.208-.94-.283-.934.276-1.346.53-2.702.792-4.053.218-.117.439-.208.656-.32.567-.302.14-1.11-.41-.931.18-.95.375-1.893.546-2.847l.289.344c.71.857 1.947-.349 1.243-1.199-.381-.461-.775-.91-1.156-1.371.227-1.325.452-2.647.674-3.966.137-.835.294-1.669.425-2.505a.668.668 0 0 1 .702-.614.437.437 0 0 1 .062-.017.728.728 0 0 1 .689.264c4.96 5.706 9.864 11.517 14.336 17.614.825 1.131 2.115 2.602 2.996 4.139.594 1.045 1.008 2.121.949 3.15-.11 1.903-1.571 4.19-2.326 5.89-3.834 8.555-8.065 16.952-12.454 25.245-2.115 4.029-4.287 8.027-6.632 11.924-1.199 1.988-2.615 5.13-4.599 6.5-.853.591-1.786.476-2.741-.092-.955-.567-1.868-1.513-2.801-2.729.319-.536.592-1.022.804-1.352.601-.938-.887-1.817-1.489-.885l-.097.151c-.021-.001-.024-.024-.051-.015l-.577.072a47.215 47.215 0 0 1-1.43-2.397c.022-.001.046-.004.07-.004.677-.019.698-1.07.019-1.052-.216.006-.431.031-.649.039a82.805 82.805 0 0 1-1.413-2.758l.292-.01c.677-.024.698-1.075.021-1.051l-.816.027-.651-1.362c-.277.476-.533.962-.834 1.424l-1.064.032c-.677.023-.698 1.074-.02 1.051l.359-.015c-.485.71-.974 1.42-1.462 2.113-.172.245-.353.48-.525.721-.654-.211-1.493.446-1.053 1.201l.081.132a191.341 191.341 0 0 1-5.402 7.119l-1.057-1.096Z" fill="#1A1A1A"/><path d="M198.851 155.454c.337-.152.666-.34.996-.49-.241 1.228-.481 2.454-.731 3.69-.448.196-.885.413-1.333.605-.607.254-.157 1.034.371.969.177-.019.355-.041.531-.061.044-.006.05-.048.092-.056a218.09 218.09 0 0 1-.925 4.032c-.179.083-.353.174-.533.256-.526.242-.221.905.26.933-.334 1.349-.714 2.677-1.076 4.02-.425.209-.838.441-1.27.642-.615.288-.107 1.21.503.924.127-.06.252-.13.38-.19-.354 1.266-.688 2.539-1.073 3.793a1.61 1.61 0 0 0-.75.746.493.493 0 0 0 .282.584c-.54.603-1.771.13-1.48-.798.162-.521.295-1.07.451-1.596 1.828-6.073 3.306-12.262 4.545-18.509a.543.543 0 0 0 .495.551.547.547 0 0 0 .265-.045Zm3.479-16.719c1.882 2.164 3.706 4.35 5.534 6.545.382.461.775.911 1.157 1.372.703.849-.534 2.056-1.244 1.199l-.289-.345-.165-.195c-.238-.288-.486-.569-.724-.857-.472-.565-.953-1.123-1.429-1.688l-.711-.843c-.735-.869-1.463-1.745-2.204-2.609-.197 1.233-.4 2.466-.609 3.7-.051.315-.101.631-.155.946-.15.893-.275 1.777-.439 2.677-.058.328-.128.654-.188.984-.24 1.353-.511 2.701-.767 4.055-.587.275-1.155.59-1.745.858a.418.418 0 0 0-.216.241c.208-1.049.403-2.099.604-3.155a450.58 450.58 0 0 0 2.146-12.523c.074-.48.622-.7 1.06-.592a.73.73 0 0 1 .384.23Zm-18.204 33.556c.32.355.659.707.975 1.069.688.782-.361 1.87-1.1 1.307.56-.209.324-1.125-.307-.981-.171.039-.337.097-.509.136a91.238 91.238 0 0 0-2.06-2.26c-.238-.248-.489-.48-.729-.726-.143-.148-.299-.282-.447-.428-.352-.366-.726-.709-1.096-1.055-.218.748-.456 1.488-.69 2.231-.127.408-.246.821-.379 1.227-.325.996-.665 1.984-1.017 2.97-.148.057-.301.098-.447.156-.533.203-.418.941.021 1.008-.432 1.175-.85 2.357-1.313 3.524l-1.096.393c-.637.22-.392 1.244.247 1.023l.316-.11a139.93 139.93 0 0 1-1.528 3.649c-.251.083-.493.176-.747.256-.616.2-.402 1.13.187 1.016a221.237 221.237 0 0 1-2.163 4.663l-1.166.538c-.596.276-.135 1.125.449.926a235.244 235.244 0 0 1-1.615 3.214l-1.372.505c-.632.232-.388 1.256.246 1.023.148-.053.292-.106.438-.161-.147.284-.297.565-.447.849l-1.256-1.302c4.928-9.457 9.263-19.238 12.103-29.422.186-.674.974-.784 1.453-.367.584.513 1.123 1.075 1.68 1.618a66.507 66.507 0 0 1 3.369 3.511Z" fill="#1A1A1A"/><path d="M198.851 155.454a.548.548 0 0 1-.513-.047.537.537 0 0 1-.24-.456.386.386 0 0 1 .035-.18.415.415 0 0 1 .215-.24c.591-.268 1.158-.584 1.746-.858 2.281-1.073 4.538-2.139 6.752-3.312.025-.025.06.001.091-.009.552-.177.979.63.41.931-.22.116-.441.206-.656.32a141.746 141.746 0 0 1-6.847 3.361c-.332.155-.656.338-.993.49Zm-.076 4.656c-.037.012-.049.048-.092.055-.176.021-.353.043-.531.062-.531.061-.978-.715-.37-.969.447-.193.885-.409 1.332-.606a210.655 210.655 0 0 0 6.572-2.983c.08-.037.147-.009.22-.009.491-.006.816.678.283.933-.168.083-.344.153-.512.232a209.52 209.52 0 0 1-6.639 3.014.374.374 0 0 1-.263.271Zm-1.198 5.22c-.481-.027-.786-.691-.26-.933.18-.081.354-.173.533-.255a102.627 102.627 0 0 0 7.082-3.627c.073-.041.148-.077.218-.118.59-.333 1.099.597.503.924-.326.185-.658.349-.989.532a100.648 100.648 0 0 1-6.842 3.47c-.089.038-.176.017-.245.007Zm-1.838 5.595c-.609.286-1.118-.636-.503-.924.432-.201.845-.433 1.271-.642a85.868 85.868 0 0 0 7.444-4.072c.043-.042.105-.062.157-.092.575-.359 1.076.566.503.924-.316.195-.643.365-.964.558a86.54 86.54 0 0 1-7.528 4.058c-.126.058-.251.128-.38.19Zm-1.443 4.349a1.61 1.61 0 0 1 .75-.746c.633-.375 1.478-.61 2.002-.847l5.174-2.338c.091-.04.168-.012.249-.007.478.029.784.692.254.931-.195.089-.393.18-.59.268l-3.432 1.553-1.724.78c-.245.111-1.206.534-1.526.649l-.027.083c-.016.048-.07.068-.093.116a.497.497 0 0 1-.555.247l-.115-.038c-.032-.009-.048-.05-.082-.064a.496.496 0 0 1-.285-.587Zm6.493 1.204a.52.52 0 0 1 .174.19.517.517 0 0 1-.194.679c-.14.078-.29.133-.43.208-.895.475-1.835.862-2.805 1.154-.187.058-.367.139-.561.189-.653.176-.902-.846-.246-1.022.069-.017.134-.05.202-.069a14.707 14.707 0 0 0 3.333-1.391.439.439 0 0 1 .527.062Zm-24.212.475c-.092.035-.154-.001-.228-.013-.434-.072-.547-.798-.02-1.008.146-.058.299-.099.446-.156.23-.085.461-.155.69-.237a53.955 53.955 0 0 1 5.727-1.724c.171-.039.338-.097.509-.136.631-.144.865.77.306.981l-.051.05c-.239.055-.475.126-.711.188a54.009 54.009 0 0 0-6.415 1.976c-.088.026-.173.048-.253.079Zm-2.398 4.918c-.639.221-.885-.804-.246-1.022l1.095-.394.068-.022 6.989-2.43c.043-.015.083-.028.124-.044.639-.221.887.803.25 1.022l-.842.292-7.129 2.482a3.693 3.693 0 0 1-.309.116Zm-1.77 4.824c-.589.114-.804-.817-.187-1.016.254-.08.495-.174.747-.257 2.457-.818 4.878-1.721 7.248-2.76.617-.264 1.124.654.503.924-.356.154-.717.288-1.076.438a89.232 89.232 0 0 1-7.18 2.683c-.025-.005-.041-.026-.055-.012Z" fill="#1A1A1A"/></g></svg>